<svg class="main-svg" xmlns="http://www.w3.org/2000/svg" xmlns:xlink="http://www.w3.org/1999/xlink" width="1200" height="800" style="" viewBox="0 0 1200 800"><rect x="0" y="0" width="1200" height="800" style="fill: rgb(255, 255, 255); fill-opacity: 1;"/><defs id="defs-84848c"><g class="clips"><clipPath id="clip84848cxyplot" class="plotclip"><rect width="1000" height="600"/></clipPath><clipPath class="axesclip" id="clip84848cx"><rect x="100" y="0" width="1000" height="800"/></clipPath><clipPath class="axesclip" id="clip84848cy"><rect x="0" y="100" width="1200" height="600"/></clipPath><clipPath class="axesclip" id="clip84848cxy"><rect x="100" y="100" width="1000" height="600"/></clipPath></g><g class="gradients"/><g class="patterns"/></defs><g class="bglayer"/><g class="layer-below"><g class="imagelayer"/><g class="shapelayer"/></g><g class="cartesianlayer"><g class="subplot xy"><g class="layer-subplot"><g class="shapelayer"/><g class="imagelayer"/></g><g class="minor-gridlayer"><g class="x"/><g class="y"/></g><g class="gridlayer"><g class="x"><path class="xgrid crisp" transform="translate(208.05,0)" d="M0,100v600" style="stroke: rgb(211, 211, 211); stroke-opacity: 1; stroke-width: 1px;"/><path class="xgrid crisp" transform="translate(292.1,0)" d="M0,100v600" style="stroke: rgb(211, 211, 211); stroke-opacity: 1; stroke-width: 1px;"/><path class="xgrid crisp" transform="translate(376.16,0)" d="M0,100v600" style="stroke: rgb(211, 211, 211); stroke-opacity: 1; stroke-width: 1px;"/><path class="xgrid crisp" transform="translate(460.21,0)" d="M0,100v600" style="stroke: rgb(211, 211, 211); stroke-opacity: 1; stroke-width: 1px;"/><path class="xgrid crisp" transform="translate(544.26,0)" d="M0,100v600" style="stroke: rgb(211, 211, 211); stroke-opacity: 1; stroke-width: 1px;"/><path class="xgrid crisp" transform="translate(628.31,0)" d="M0,100v600" style="stroke: rgb(211, 211, 211); stroke-opacity: 1; stroke-width: 1px;"/><path class="xgrid crisp" transform="translate(712.37,0)" d="M0,100v600" style="stroke: rgb(211, 211, 211); stroke-opacity: 1; stroke-width: 1px;"/><path class="xgrid crisp" transform="translate(796.42,0)" d="M0,100v600" style="stroke: rgb(211, 211, 211); stroke-opacity: 1; stroke-width: 1px;"/><path class="xgrid crisp" transform="translate(880.47,0)" d="M0,100v600" style="stroke: rgb(211, 211, 211); stroke-opacity: 1; stroke-width: 1px;"/><path class="xgrid crisp" transform="translate(964.53,0)" d="M0,100v600" style="stroke: rgb(211, 211, 211); stroke-opacity: 1; stroke-width: 1px;"/></g><g class="y"><path class="ygrid crisp" transform="translate(0,640.03)" d="M100,0h1000" style="stroke: rgb(211, 211, 211); stroke-opacity: 1; stroke-width: 1px;"/><path class="ygrid crisp" transform="translate(0,520.72)" d="M100,0h1000" style="stroke: rgb(211, 211, 211); stroke-opacity: 1; stroke-width: 1px;"/><path class="ygrid crisp" transform="translate(0,401.42)" d="M100,0h1000" style="stroke: rgb(211, 211, 211); stroke-opacity: 1; stroke-width: 1px;"/><path class="ygrid crisp" transform="translate(0,282.11)" d="M100,0h1000" style="stroke: rgb(211, 211, 211); stroke-opacity: 1; stroke-width: 1px;"/><path class="ygrid crisp" transform="translate(0,162.81)" d="M100,0h1000" style="stroke: rgb(211, 211, 211); stroke-opacity: 1; stroke-width: 1px;"/></g></g><g class="zerolinelayer"/><g class="layer-between"><g class="shapelayer"/><g class="imagelayer"/></g><path class="xlines-below"/><path class="ylines-below"/><g class="overlines-below"/><g class="xaxislayer-below"/><g class="yaxislayer-below"/><g class="overaxes-below"/><g class="overplot"><g class="xy" transform="translate(100,100)" clip-path="url(#clip84848cxyplot)"><g class="scatterlayer mlayer"><g class="trace scatter traceb52304" style="stroke-miterlimit: 2; opacity: 1;"><g class="fills"/><g class="errorbars"/><g class="lines"/><g class="points"><path class="point" transform="translate(108.05,289.97)" d="M46.44,0A46.44,46.44 0 1,1 0,-46.44A46.44,46.44 0 0,1 46.44,0Z" style="opacity: 0.6; stroke-width: 1px; fill: rgb(52, 152, 219); fill-opacity: 1; stroke: rgb(255, 255, 255); stroke-opacity: 1;"/><path class="point" transform="translate(192.1,191.79)" d="M58.78,0A58.78,58.78 0 1,1 0,-58.78A58.78,58.78 0 0,1 58.78,0Z" style="opacity: 0.6; stroke-width: 1px; fill: rgb(52, 152, 219); fill-opacity: 1; stroke: rgb(255, 255, 255); stroke-opacity: 1;"/><path class="point" transform="translate(276.16,170.2)" d="M61.5,0A61.5,61.5 0 1,1 0,-61.5A61.5,61.5 0 0,1 61.5,0Z" style="opacity: 0.6; stroke-width: 1px; fill: rgb(52, 152, 219); fill-opacity: 1; stroke: rgb(255, 255, 255); stroke-opacity: 1;"/><path class="point" transform="translate(360.21,142.24)" d="M65.01,0A65.01,65.01 0 1,1 0,-65.01A65.01,65.01 0 0,1 65.01,0Z" style="opacity: 0.6; stroke-width: 1px; fill: rgb(52, 152, 219); fill-opacity: 1; stroke: rgb(255, 255, 255); stroke-opacity: 1;"/><path class="point" transform="translate(444.26,139.9)" d="M65.31,0A65.31,65.31 0 1,1 0,-65.31A65.31,65.31 0 0,1 65.31,0Z" style="opacity: 0.6; stroke-width: 1px; fill: rgb(52, 152, 219); fill-opacity: 1; stroke: rgb(255, 255, 255); stroke-opacity: 1;"/><path class="point" transform="translate(528.31,130.81)" d="M66.45,0A66.45,66.45 0 1,1 0,-66.45A66.45,66.45 0 0,1 66.45,0Z" style="opacity: 0.6; stroke-width: 1px; fill: rgb(52, 152, 219); fill-opacity: 1; stroke: rgb(255, 255, 255); stroke-opacity: 1;"/><path class="point" transform="translate(612.37,121.29)" d="M67.65,0A67.65,67.65 0 1,1 0,-67.65A67.65,67.65 0 0,1 67.65,0Z" style="opacity: 0.6; stroke-width: 1px; fill: rgb(52, 152, 219); fill-opacity: 1; stroke: rgb(255, 255, 255); stroke-opacity: 1;"/><path class="point" transform="translate(696.42,121.94)" d="M67.57,0A67.57,67.57 0 1,1 0,-67.57A67.57,67.57 0 0,1 67.57,0Z" style="opacity: 0.6; stroke-width: 1px; fill: rgb(52, 152, 219); fill-opacity: 1; stroke: rgb(255, 255, 255); stroke-opacity: 1;"/><path class="point" transform="translate(780.47,119.71)" d="M67.85,0A67.85,67.85 0 1,1 0,-67.85A67.85,67.85 0 0,1 67.85,0Z" style="opacity: 0.6; stroke-width: 1px; fill: rgb(52, 152, 219); fill-opacity: 1; stroke: rgb(255, 255, 255); stroke-opacity: 1;"/><path class="point" transform="translate(864.53,115.47)" d="M68.38,0A68.38,68.38 0 1,1 0,-68.38A68.38,68.38 0 0,1 68.38,0Z" style="opacity: 0.6; stroke-width: 1px; fill: rgb(52, 152, 219); fill-opacity: 1; stroke: rgb(255, 255, 255); stroke-opacity: 1;"/></g><g class="text"><g class="textpoint" transform="translate(0,-61.549406927628894)"><text x="108.05" y="289.97" text-anchor="middle" style="font-family: 'Open Sans', verdana, arial, sans-serif; font-size: 10px; fill: rgb(0, 0, 0); fill-opacity: 1; white-space: pre;">1.6M</text></g><g class="textpoint" transform="translate(0,-76.97891878951351)"><text x="192.1" y="191.79" text-anchor="middle" style="font-family: 'Open Sans', verdana, arial, sans-serif; font-size: 10px; fill: rgb(0, 0, 0); fill-opacity: 1; white-space: pre;">68.8M</text></g><g class="textpoint" transform="translate(0,-80.37211933646904)"><text x="276.16" y="170.2" text-anchor="middle" style="font-family: 'Open Sans', verdana, arial, sans-serif; font-size: 10px; fill: rgb(0, 0, 0); fill-opacity: 1; white-space: pre;">158.4M</text></g><g class="textpoint" transform="translate(0,-84.76554490281762)"><text x="360.21" y="142.24" text-anchor="middle" style="font-family: 'Open Sans', verdana, arial, sans-serif; font-size: 10px; fill: rgb(0, 0, 0); fill-opacity: 1; white-space: pre;">465.9M</text></g><g class="textpoint" transform="translate(0,-85.13356887440439)"><text x="444.26" y="139.9" text-anchor="middle" style="font-family: 'Open Sans', verdana, arial, sans-serif; font-size: 10px; fill: rgb(0, 0, 0); fill-opacity: 1; white-space: pre;">510.0M</text></g><g class="textpoint" transform="translate(0,-86.56233134926198)"><text x="528.31" y="130.81" text-anchor="middle" style="font-family: 'Open Sans', verdana, arial, sans-serif; font-size: 10px; fill: rgb(0, 0, 0); fill-opacity: 1; white-space: pre;">724.4M</text></g><g class="textpoint" transform="translate(0,-88.05818208167628)"><text x="612.37" y="121.29" text-anchor="middle" style="font-family: 'Open Sans', verdana, arial, sans-serif; font-size: 10px; fill: rgb(0, 0, 0); fill-opacity: 1; white-space: pre;">1.0B</text></g><g class="textpoint" transform="translate(0,-87.95739359377086)"><text x="696.42" y="121.94" text-anchor="middle" style="font-family: 'Open Sans', verdana, arial, sans-serif; font-size: 10px; fill: rgb(0, 0, 0); fill-opacity: 1; white-space: pre;">1.0B</text></g><g class="textpoint" transform="translate(0,-88.3069524837372)"><text x="780.47" y="119.71" text-anchor="middle" style="font-family: 'Open Sans', verdana, arial, sans-serif; font-size: 10px; fill: rgb(0, 0, 0); fill-opacity: 1; white-space: pre;">1.1B</text></g><g class="textpoint" transform="translate(0,-88.97296647650067)"><text x="864.53" y="115.47" text-anchor="middle" style="font-family: 'Open Sans', verdana, arial, sans-serif; font-size: 10px; fill: rgb(0, 0, 0); fill-opacity: 1; white-space: pre;">1.3B</text></g></g></g><g class="trace scatter traceff8c2f" style="stroke-miterlimit: 2; opacity: 1;"><g class="fills"/><g class="errorbars"/><g class="lines"/><g class="points"><path class="point" transform="translate(192.1,340.74)" d="M40.06,0A40.06,40.06 0 1,1 0,-40.06A40.06,40.06 0 0,1 40.06,0Z" style="opacity: 0.6; stroke-width: 1px; fill: rgb(46, 204, 113); fill-opacity: 1; stroke: rgb(255, 255, 255); stroke-opacity: 1;"/><path class="point" transform="translate(276.16,260.32)" d="M50.17,0A50.17,50.17 0 1,1 0,-50.17A50.17,50.17 0 0,1 50.17,0Z" style="opacity: 0.6; stroke-width: 1px; fill: rgb(46, 204, 113); fill-opacity: 1; stroke: rgb(255, 255, 255); stroke-opacity: 1;"/><path class="point" transform="translate(360.21,233.56)" d="M53.53,0A53.53,53.53 0 1,1 0,-53.53A53.53,53.53 0 0,1 53.53,0Z" style="opacity: 0.6; stroke-width: 1px; fill: rgb(46, 204, 113); fill-opacity: 1; stroke: rgb(255, 255, 255); stroke-opacity: 1;"/><path class="point" transform="translate(444.26,216.9)" d="M55.63,0A55.63,55.63 0 1,1 0,-55.63A55.63,55.63 0 0,1 55.63,0Z" style="opacity: 0.6; stroke-width: 1px; fill: rgb(46, 204, 113); fill-opacity: 1; stroke: rgb(255, 255, 255); stroke-opacity: 1;"/><path class="point" transform="translate(528.31,180.69)" d="M60.18,0A60.18,60.18 0 1,1 0,-60.18A60.18,60.18 0 0,1 60.18,0Z" style="opacity: 0.6; stroke-width: 1px; fill: rgb(46, 204, 113); fill-opacity: 1; stroke: rgb(255, 255, 255); stroke-opacity: 1;"/><path class="point" transform="translate(612.37,167.53)" d="M61.83,0A61.83,61.83 0 1,1 0,-61.83A61.83,61.83 0 0,1 61.83,0Z" style="opacity: 0.6; stroke-width: 1px; fill: rgb(46, 204, 113); fill-opacity: 1; stroke: rgb(255, 255, 255); stroke-opacity: 1;"/><path class="point" transform="translate(696.42,157.94)" d="M63.04,0A63.04,63.04 0 1,1 0,-63.04A63.04,63.04 0 0,1 63.04,0Z" style="opacity: 0.6; stroke-width: 1px; fill: rgb(46, 204, 113); fill-opacity: 1; stroke: rgb(255, 255, 255); stroke-opacity: 1;"/><path class="point" transform="translate(780.47,156.65)" d="M63.2,0A63.2,63.2 0 1,1 0,-63.2A63.2,63.2 0 0,1 63.2,0Z" style="opacity: 0.6; stroke-width: 1px; fill: rgb(46, 204, 113); fill-opacity: 1; stroke: rgb(255, 255, 255); stroke-opacity: 1;"/><path class="point" transform="translate(864.53,148)" d="M64.29,0A64.29,64.29 0 1,1 0,-64.29A64.29,64.29 0 0,1 64.29,0Z" style="opacity: 0.6; stroke-width: 1px; fill: rgb(46, 204, 113); fill-opacity: 1; stroke: rgb(255, 255, 255); stroke-opacity: 1;"/></g><g class="text"><g class="textpoint" transform="translate(0,-53.56989719117578)"><text x="192.1" y="340.74" text-anchor="middle" style="font-family: 'Open Sans', verdana, arial, sans-serif; font-size: 10px; fill: rgb(0, 0, 0); fill-opacity: 1; white-space: pre;">219.2K</text></g><g class="textpoint" transform="translate(0,-66.2089553782202)"><text x="276.16" y="260.32" text-anchor="middle" style="font-family: 'Open Sans', verdana, arial, sans-serif; font-size: 10px; fill: rgb(0, 0, 0); fill-opacity: 1; white-space: pre;">4.9M</text></g><g class="textpoint" transform="translate(0,-70.4144076139224)"><text x="360.21" y="233.56" text-anchor="middle" style="font-family: 'Open Sans', verdana, arial, sans-serif; font-size: 10px; fill: rgb(0, 0, 0); fill-opacity: 1; white-space: pre;">13.7M</text></g><g class="textpoint" transform="translate(0,-73.03283106659693)"><text x="444.26" y="216.9" text-anchor="middle" style="font-family: 'Open Sans', verdana, arial, sans-serif; font-size: 10px; fill: rgb(0, 0, 0); fill-opacity: 1; white-space: pre;">26.1M</text></g><g class="textpoint" transform="translate(0,-78.72322571853319)"><text x="528.31" y="180.69" text-anchor="middle" style="font-family: 'Open Sans', verdana, arial, sans-serif; font-size: 10px; fill: rgb(0, 0, 0); fill-opacity: 1; white-space: pre;">105.6M</text></g><g class="textpoint" transform="translate(0,-80.79158338557494)"><text x="612.37" y="167.53" text-anchor="middle" style="font-family: 'Open Sans', verdana, arial, sans-serif; font-size: 10px; fill: rgb(0, 0, 0); fill-opacity: 1; white-space: pre;">175.6M</text></g><g class="textpoint" transform="translate(0,-82.2989011788272)"><text x="696.42" y="157.94" text-anchor="middle" style="font-family: 'Open Sans', verdana, arial, sans-serif; font-size: 10px; fill: rgb(0, 0, 0); fill-opacity: 1; white-space: pre;">254.2M</text></g><g class="textpoint" transform="translate(0,-82.50169562841556)"><text x="780.47" y="156.65" text-anchor="middle" style="font-family: 'Open Sans', verdana, arial, sans-serif; font-size: 10px; fill: rgb(0, 0, 0); fill-opacity: 1; white-space: pre;">267.2M</text></g><g class="textpoint" transform="translate(0,-83.86122828200163)"><text x="864.53" y="148" text-anchor="middle" style="font-family: 'Open Sans', verdana, arial, sans-serif; font-size: 10px; fill: rgb(0, 0, 0); fill-opacity: 1; white-space: pre;">373.1M</text></g></g></g><g class="trace scatter tracebbdddd" style="stroke-miterlimit: 2; opacity: 1;"><g class="fills"/><g class="errorbars"/><g class="lines"/><g class="points"><path class="point" transform="translate(276.16,418.8)" d="M30.24,0A30.24,30.24 0 1,1 0,-30.24A30.24,30.24 0 0,1 30.24,0Z" style="opacity: 0.6; stroke-width: 1px; fill: rgb(241, 196, 15); fill-opacity: 1; stroke: rgb(255, 255, 255); stroke-opacity: 1;"/><path class="point" transform="translate(360.21,302.71)" d="M44.84,0A44.84,44.84 0 1,1 0,-44.84A44.84,44.84 0 0,1 44.84,0Z" style="opacity: 0.6; stroke-width: 1px; fill: rgb(241, 196, 15); fill-opacity: 1; stroke: rgb(255, 255, 255); stroke-opacity: 1;"/><path class="point" transform="translate(444.26,211.72)" d="M56.28,0A56.28,56.28 0 1,1 0,-56.28A56.28,56.28 0 0,1 56.28,0Z" style="opacity: 0.6; stroke-width: 1px; fill: rgb(241, 196, 15); fill-opacity: 1; stroke: rgb(255, 255, 255); stroke-opacity: 1;"/><path class="point" transform="translate(528.31,156.73)" d="M63.19,0A63.19,63.19 0 1,1 0,-63.19A63.19,63.19 0 0,1 63.19,0Z" style="opacity: 0.6; stroke-width: 1px; fill: rgb(241, 196, 15); fill-opacity: 1; stroke: rgb(255, 255, 255); stroke-opacity: 1;"/><path class="point" transform="translate(612.37,142.33)" d="M65,0A65,65 0 1,1 0,-65A65,65 0 0,1 65,0Z" style="opacity: 0.6; stroke-width: 1px; fill: rgb(241, 196, 15); fill-opacity: 1; stroke: rgb(255, 255, 255); stroke-opacity: 1;"/><path class="point" transform="translate(696.42,142.98)" d="M64.92,0A64.92,64.92 0 1,1 0,-64.92A64.92,64.92 0 0,1 64.92,0Z" style="opacity: 0.6; stroke-width: 1px; fill: rgb(241, 196, 15); fill-opacity: 1; stroke: rgb(255, 255, 255); stroke-opacity: 1;"/><path class="point" transform="translate(780.47,132.43)" d="M66.25,0A66.25,66.25 0 1,1 0,-66.25A66.25,66.25 0 0,1 66.25,0Z" style="opacity: 0.6; stroke-width: 1px; fill: rgb(241, 196, 15); fill-opacity: 1; stroke: rgb(255, 255, 255); stroke-opacity: 1;"/><path class="point" transform="translate(864.53,125.04)" d="M67.18,0A67.18,67.18 0 1,1 0,-67.18A67.18,67.18 0 0,1 67.18,0Z" style="opacity: 0.6; stroke-width: 1px; fill: rgb(241, 196, 15); fill-opacity: 1; stroke: rgb(255, 255, 255); stroke-opacity: 1;"/></g><g class="text"><g class="textpoint" transform="translate(0,-41.30315618605377)"><text x="276.16" y="418.8" text-anchor="middle" style="font-family: 'Open Sans', verdana, arial, sans-serif; font-size: 10px; fill: rgb(0, 0, 0); fill-opacity: 1; white-space: pre;">10.8K</text></g><g class="textpoint" transform="translate(0,-59.5463455991614)"><text x="360.21" y="302.71" text-anchor="middle" style="font-family: 'Open Sans', verdana, arial, sans-serif; font-size: 10px; fill: rgb(0, 0, 0); fill-opacity: 1; white-space: pre;">951.2K</text></g><g class="textpoint" transform="translate(0,-73.84754814950942)"><text x="444.26" y="211.72" text-anchor="middle" style="font-family: 'Open Sans', verdana, arial, sans-serif; font-size: 10px; fill: rgb(0, 0, 0); fill-opacity: 1; white-space: pre;">31.9M</text></g><g class="textpoint" transform="translate(0,-82.48926161324925)"><text x="528.31" y="156.73" text-anchor="middle" style="font-family: 'Open Sans', verdana, arial, sans-serif; font-size: 10px; fill: rgb(0, 0, 0); fill-opacity: 1; white-space: pre;">266.4M</text></g><g class="textpoint" transform="translate(0,-84.75148720385174)"><text x="612.37" y="142.33" text-anchor="middle" style="font-family: 'Open Sans', verdana, arial, sans-serif; font-size: 10px; fill: rgb(0, 0, 0); fill-opacity: 1; white-space: pre;">464.3M</text></g><g class="textpoint" transform="translate(0,-84.65068032776414)"><text x="696.42" y="142.98" text-anchor="middle" style="font-family: 'Open Sans', verdana, arial, sans-serif; font-size: 10px; fill: rgb(0, 0, 0); fill-opacity: 1; white-space: pre;">453.0M</text></g><g class="textpoint" transform="translate(0,-86.30730087611589)"><text x="780.47" y="132.43" text-anchor="middle" style="font-family: 'Open Sans', verdana, arial, sans-serif; font-size: 10px; fill: rgb(0, 0, 0); fill-opacity: 1; white-space: pre;">680.4M</text></g><g class="textpoint" transform="translate(0,-87.46994356858488)"><text x="864.53" y="125.04" text-anchor="middle" style="font-family: 'Open Sans', verdana, arial, sans-serif; font-size: 10px; fill: rgb(0, 0, 0); fill-opacity: 1; white-space: pre;">905.3M</text></g></g></g><g class="trace scatter traceb9894d" style="stroke-miterlimit: 2; opacity: 1;"><g class="fills"/><g class="errorbars"/><g class="lines"/><g class="points"><path class="point" transform="translate(108.05,449.52)" d="M26.38,0A26.38,26.38 0 1,1 0,-26.38A26.38,26.38 0 0,1 26.38,0Z" style="opacity: 0.6; stroke-width: 1px; fill: rgb(231, 76, 60); fill-opacity: 1; stroke: rgb(255, 255, 255); stroke-opacity: 1;"/><path class="point" transform="translate(192.1,340.21)" d="M40.12,0A40.12,40.12 0 1,1 0,-40.12A40.12,40.12 0 0,1 40.12,0Z" style="opacity: 0.6; stroke-width: 1px; fill: rgb(231, 76, 60); fill-opacity: 1; stroke: rgb(255, 255, 255); stroke-opacity: 1;"/><path class="point" transform="translate(276.16,396.34)" d="M33.07,0A33.07,33.07 0 1,1 0,-33.07A33.07,33.07 0 0,1 33.07,0Z" style="opacity: 0.6; stroke-width: 1px; fill: rgb(231, 76, 60); fill-opacity: 1; stroke: rgb(255, 255, 255); stroke-opacity: 1;"/><path class="point" transform="translate(360.21,530.76)" d="M16.19,0A16.19,16.19 0 1,1 0,-16.19A16.19,16.19 0 0,1 16.19,0Z" style="opacity: 0.6; stroke-width: 1px; fill: rgb(231, 76, 60); fill-opacity: 1; stroke: rgb(255, 255, 255); stroke-opacity: 1;"/><path class="point" transform="translate(444.26,553.26)" d="M13.39,0A13.39,13.39 0 1,1 0,-13.39A13.39,13.39 0 0,1 13.39,0Z" style="opacity: 0.6; stroke-width: 1px; fill: rgb(231, 76, 60); fill-opacity: 1; stroke: rgb(255, 255, 255); stroke-opacity: 1;"/><path class="point" transform="translate(528.31,543.94)" d="M14.55,0A14.55,14.55 0 1,1 0,-14.55A14.55,14.55 0 0,1 14.55,0Z" style="opacity: 0.6; stroke-width: 1px; fill: rgb(231, 76, 60); fill-opacity: 1; stroke: rgb(255, 255, 255); stroke-opacity: 1;"/><path class="point" transform="translate(612.37,476.4)" d="M23,0A23,23 0 1,1 0,-23A23,23 0 0,1 23,0Z" style="opacity: 0.6; stroke-width: 1px; fill: rgb(231, 76, 60); fill-opacity: 1; stroke: rgb(255, 255, 255); stroke-opacity: 1;"/><path class="point" transform="translate(696.42,492.18)" d="M21.02,0A21.02,21.02 0 1,1 0,-21.02A21.02,21.02 0 0,1 21.02,0Z" style="opacity: 0.6; stroke-width: 1px; fill: rgb(231, 76, 60); fill-opacity: 1; stroke: rgb(255, 255, 255); stroke-opacity: 1;"/><path class="point" transform="translate(780.47,524.23)" d="M17,0A17,17 0 1,1 0,-17A17,17 0 0,1 17,0Z" style="opacity: 0.6; stroke-width: 1px; fill: rgb(231, 76, 60); fill-opacity: 1; stroke: rgb(255, 255, 255); stroke-opacity: 1;"/><path class="point" transform="translate(864.53,496.29)" d="M20.5,0A20.5,20.5 0 1,1 0,-20.5A20.5,20.5 0 0,1 20.5,0Z" style="opacity: 0.6; stroke-width: 1px; fill: rgb(231, 76, 60); fill-opacity: 1; stroke: rgb(255, 255, 255); stroke-opacity: 1;"/></g><g class="text"><g class="textpoint" transform="translate(0,-36.47618587381468)"><text x="108.05" y="449.52" text-anchor="middle" style="font-family: 'Open Sans', verdana, arial, sans-serif; font-size: 10px; fill: rgb(0, 0, 0); fill-opacity: 1; white-space: pre;">3.3K</text></g><g class="textpoint" transform="translate(0,-53.654192304358936)"><text x="192.1" y="340.21" text-anchor="middle" style="font-family: 'Open Sans', verdana, arial, sans-serif; font-size: 10px; fill: rgb(0, 0, 0); fill-opacity: 1; white-space: pre;">223.8K</text></g><g class="textpoint" transform="translate(0,-44.832335885038844)"><text x="276.16" y="396.34" text-anchor="middle" style="font-family: 'Open Sans', verdana, arial, sans-serif; font-size: 10px; fill: rgb(0, 0, 0); fill-opacity: 1; white-space: pre;">25.6K</text></g><g class="textpoint" transform="translate(0,-23.734648363392964)"><text x="360.21" y="530.76" text-anchor="middle" style="font-family: 'Open Sans', verdana, arial, sans-serif; font-size: 10px; fill: rgb(0, 0, 0); fill-opacity: 1; white-space: pre;">143</text></g><g class="textpoint" transform="translate(0,-20.23746720322594)"><text x="444.26" y="553.26" text-anchor="middle" style="font-family: 'Open Sans', verdana, arial, sans-serif; font-size: 10px; fill: rgb(0, 0, 0); fill-opacity: 1; white-space: pre;">60</text></g><g class="textpoint" transform="translate(0,-21.682992993299546)"><text x="528.31" y="543.94" text-anchor="middle" style="font-family: 'Open Sans', verdana, arial, sans-serif; font-size: 10px; fill: rgb(0, 0, 0); fill-opacity: 1; white-space: pre;">86</text></g><g class="textpoint" transform="translate(0,-32.25378927542535)"><text x="612.37" y="476.4" text-anchor="middle" style="font-family: 'Open Sans', verdana, arial, sans-serif; font-size: 10px; fill: rgb(0, 0, 0); fill-opacity: 1; white-space: pre;">1.2K</text></g><g class="textpoint" transform="translate(0,-29.77600367461227)"><text x="696.42" y="492.18" text-anchor="middle" style="font-family: 'Open Sans', verdana, arial, sans-serif; font-size: 10px; fill: rgb(0, 0, 0); fill-opacity: 1; white-space: pre;">634</text></g><g class="textpoint" transform="translate(0,-24.754734953778254)"><text x="780.47" y="524.23" text-anchor="middle" style="font-family: 'Open Sans', verdana, arial, sans-serif; font-size: 10px; fill: rgb(0, 0, 0); fill-opacity: 1; white-space: pre;">184</text></g><g class="textpoint" transform="translate(0,-29.13124331129738)"><text x="864.53" y="496.29" text-anchor="middle" style="font-family: 'Open Sans', verdana, arial, sans-serif; font-size: 10px; fill: rgb(0, 0, 0); fill-opacity: 1; white-space: pre;">541</text></g></g></g></g></g></g><path class="xlines-above crisp" d="M0,0" style="fill: none;"/><path class="ylines-above crisp" d="M0,0" style="fill: none;"/><g class="overlines-above"/><g class="xaxislayer-above"><g class="xtick"><text text-anchor="middle" x="0" y="713" transform="translate(208.05,0)" style="font-family: 'Open Sans', verdana, arial, sans-serif; font-size: 12px; fill: rgb(42, 63, 95); fill-opacity: 1; white-space: pre; opacity: 1;">2015</text></g><g class="xtick"><text text-anchor="middle" x="0" y="713" style="font-family: 'Open Sans', verdana, arial, sans-serif; font-size: 12px; fill: rgb(42, 63, 95); fill-opacity: 1; white-space: pre; opacity: 1;" transform="translate(292.1,0)">2016</text></g><g class="xtick"><text text-anchor="middle" x="0" y="713" style="font-family: 'Open Sans', verdana, arial, sans-serif; font-size: 12px; fill: rgb(42, 63, 95); fill-opacity: 1; white-space: pre; opacity: 1;" transform="translate(376.16,0)">2017</text></g><g class="xtick"><text text-anchor="middle" x="0" y="713" style="font-family: 'Open Sans', verdana, arial, sans-serif; font-size: 12px; fill: rgb(42, 63, 95); fill-opacity: 1; white-space: pre; opacity: 1;" transform="translate(460.21,0)">2018</text></g><g class="xtick"><text text-anchor="middle" x="0" y="713" style="font-family: 'Open Sans', verdana, arial, sans-serif; font-size: 12px; fill: rgb(42, 63, 95); fill-opacity: 1; white-space: pre; opacity: 1;" transform="translate(544.26,0)">2019</text></g><g class="xtick"><text text-anchor="middle" x="0" y="713" style="font-family: 'Open Sans', verdana, arial, sans-serif; font-size: 12px; fill: rgb(42, 63, 95); fill-opacity: 1; white-space: pre; opacity: 1;" transform="translate(628.31,0)">2020</text></g><g class="xtick"><text text-anchor="middle" x="0" y="713" style="font-family: 'Open Sans', verdana, arial, sans-serif; font-size: 12px; fill: rgb(42, 63, 95); fill-opacity: 1; white-space: pre; opacity: 1;" transform="translate(712.37,0)">2021</text></g><g class="xtick"><text text-anchor="middle" x="0" y="713" style="font-family: 'Open Sans', verdana, arial, sans-serif; font-size: 12px; fill: rgb(42, 63, 95); fill-opacity: 1; white-space: pre; opacity: 1;" transform="translate(796.42,0)">2022</text></g><g class="xtick"><text text-anchor="middle" x="0" y="713" style="font-family: 'Open Sans', verdana, arial, sans-serif; font-size: 12px; fill: rgb(42, 63, 95); fill-opacity: 1; white-space: pre; opacity: 1;" transform="translate(880.47,0)">2023</text></g><g class="xtick"><text text-anchor="middle" x="0" y="713" style="font-family: 'Open Sans', verdana, arial, sans-serif; font-size: 12px; fill: rgb(42, 63, 95); fill-opacity: 1; white-space: pre; opacity: 1;" transform="translate(964.53,0)">2024</text></g></g><g class="yaxislayer-above"><g class="ytick"><text text-anchor="end" x="99" y="4.199999999999999" transform="translate(0,640.03)" style="font-family: 'Open Sans', verdana, arial, sans-serif; font-size: 12px; fill: rgb(42, 63, 95); fill-opacity: 1; white-space: pre; opacity: 1;">100</text></g><g class="ytick"><text text-anchor="end" x="99" y="4.199999999999999" style="font-family: 'Open Sans', verdana, arial, sans-serif; font-size: 12px; fill: rgb(42, 63, 95); fill-opacity: 1; white-space: pre; opacity: 1;" transform="translate(0,520.72)">10k</text></g><g class="ytick"><text text-anchor="end" x="99" y="4.199999999999999" style="font-family: 'Open Sans', verdana, arial, sans-serif; font-size: 12px; fill: rgb(42, 63, 95); fill-opacity: 1; white-space: pre; opacity: 1;" transform="translate(0,401.42)">1M</text></g><g class="ytick"><text text-anchor="end" x="99" y="4.199999999999999" style="font-family: 'Open Sans', verdana, arial, sans-serif; font-size: 12px; fill: rgb(42, 63, 95); fill-opacity: 1; white-space: pre; opacity: 1;" transform="translate(0,282.11)">100M</text></g><g class="ytick"><text text-anchor="end" x="99" y="4.199999999999999" style="font-family: 'Open Sans', verdana, arial, sans-serif; font-size: 12px; fill: rgb(42, 63, 95); fill-opacity: 1; white-space: pre; opacity: 1;" transform="translate(0,162.81)">10B</text></g></g><g class="overaxes-above"/></g></g><g class="polarlayer"/><g class="smithlayer"/><g class="ternarylayer"/><g class="geolayer"/><g class="funnelarealayer"/><g class="pielayer"/><g class="iciclelayer"/><g class="treemaplayer"/><g class="sunburstlayer"/><g class="glimages"/><defs id="topdefs-84848c"><g class="clips"/><clipPath id="legend84848c"><rect width="118" height="86" x="0" y="0"/></clipPath></defs><g class="layer-above"><g class="imagelayer"/><g class="shapelayer"/></g><g class="infolayer"><g class="legend" pointer-events="all" transform="translate(110,106)"><rect class="bg" shape-rendering="crispEdges" style="stroke: rgb(68, 68, 68); stroke-opacity: 1; fill: rgb(255, 255, 255); fill-opacity: 0.8; stroke-width: 0px;" width="118" height="86" x="0" y="0"/><g class="scrollbox" transform="" clip-path="url(#legend84848c)"><g class="groups"><g class="traces" transform="translate(0,14.5)" style="opacity: 1;"><text class="legendtext" text-anchor="start" x="40" y="4.680000000000001" style="font-family: 'Open Sans', verdana, arial, sans-serif; font-size: 12px; fill: rgb(42, 63, 95); fill-opacity: 1; white-space: pre;">Call</text><g class="layers" style="opacity: 1;"><g class="legendfill"/><g class="legendlines"/><g class="legendsymbols"><g class="legendpoints"><path class="scatterpts" transform="translate(20,0)" d="M8,0A8,8 0 1,1 0,-8A8,8 0 0,1 8,0Z" style="opacity: 0.6; stroke-width: 1px; fill: rgb(52, 152, 219); fill-opacity: 1; stroke: rgb(255, 255, 255); stroke-opacity: 1;"/></g></g></g><rect class="legendtoggle" x="0" y="-9.5" width="112.046875" height="19" style="fill: rgb(0, 0, 0); fill-opacity: 0;"/></g><g class="traces" transform="translate(0,33.5)" style="opacity: 1;"><text class="legendtext" text-anchor="start" x="40" y="4.680000000000001" style="font-family: 'Open Sans', verdana, arial, sans-serif; font-size: 12px; fill: rgb(42, 63, 95); fill-opacity: 1; white-space: pre;">Delegate Call</text><g class="layers" style="opacity: 1;"><g class="legendfill"/><g class="legendlines"/><g class="legendsymbols"><g class="legendpoints"><path class="scatterpts" transform="translate(20,0)" d="M8,0A8,8 0 1,1 0,-8A8,8 0 0,1 8,0Z" style="opacity: 0.6; stroke-width: 1px; fill: rgb(46, 204, 113); fill-opacity: 1; stroke: rgb(255, 255, 255); stroke-opacity: 1;"/></g></g></g><rect class="legendtoggle" x="0" y="-9.5" width="112.046875" height="19" style="fill: rgb(0, 0, 0); fill-opacity: 0;"/></g><g class="traces" transform="translate(0,52.5)" style="opacity: 1;"><text class="legendtext" text-anchor="start" x="40" y="4.680000000000001" style="font-family: 'Open Sans', verdana, arial, sans-serif; font-size: 12px; fill: rgb(42, 63, 95); fill-opacity: 1; white-space: pre;">Static Call</text><g class="layers" style="opacity: 1;"><g class="legendfill"/><g class="legendlines"/><g class="legendsymbols"><g class="legendpoints"><path class="scatterpts" transform="translate(20,0)" d="M8,0A8,8 0 1,1 0,-8A8,8 0 0,1 8,0Z" style="opacity: 0.6; stroke-width: 1px; fill: rgb(241, 196, 15); fill-opacity: 1; stroke: rgb(255, 255, 255); stroke-opacity: 1;"/></g></g></g><rect class="legendtoggle" x="0" y="-9.5" width="112.046875" height="19" style="fill: rgb(0, 0, 0); fill-opacity: 0;"/></g><g class="traces" transform="translate(0,71.5)" style="opacity: 1;"><text class="legendtext" text-anchor="start" x="40" y="4.680000000000001" style="font-family: 'Open Sans', verdana, arial, sans-serif; font-size: 12px; fill: rgb(42, 63, 95); fill-opacity: 1; white-space: pre;">Call Code</text><g class="layers" style="opacity: 1;"><g class="legendfill"/><g class="legendlines"/><g class="legendsymbols"><g class="legendpoints"><path class="scatterpts" transform="translate(20,0)" d="M8,0A8,8 0 1,1 0,-8A8,8 0 0,1 8,0Z" style="opacity: 0.6; stroke-width: 1px; fill: rgb(231, 76, 60); fill-opacity: 1; stroke: rgb(255, 255, 255); stroke-opacity: 1;"/></g></g></g><rect class="legendtoggle" x="0" y="-9.5" width="112.046875" height="19" style="fill: rgb(0, 0, 0); fill-opacity: 0;"/></g></g></g><rect class="scrollbar" rx="20" ry="3" width="0" height="0" style="fill: rgb(128, 139, 164); fill-opacity: 1;" x="0" y="0"/></g><g class="g-gtitle"><text class="gtitle" x="600" y="50" text-anchor="middle" dy="0em" style="opacity: 1; font-family: 'Open Sans', verdana, arial, sans-serif; font-size: 20px; fill: rgb(42, 63, 95); fill-opacity: 1; white-space: pre;">Ethereum Call Types Distribution by Year</text></g><g class="g-xtitle"><text class="xtitle" x="600" y="740.3" text-anchor="middle" style="opacity: 1; font-family: 'Open Sans', verdana, arial, sans-serif; font-size: 14px; fill: rgb(42, 63, 95); fill-opacity: 1; white-space: pre;">Year</text></g><g class="g-ytitle"><text class="ytitle" transform="rotate(-90,49.56875,400)" x="49.56875" y="400" text-anchor="middle" style="opacity: 1; font-family: 'Open Sans', verdana, arial, sans-serif; font-size: 14px; fill: rgb(42, 63, 95); fill-opacity: 1; white-space: pre;">Number of Calls</text></g></g></svg>